<mxfile host="Electron" agent="Mozilla/5.0 (Windows NT 10.0; Win64; x64) AppleWebKit/537.36 (KHTML, like Gecko) draw.io/28.1.2 Chrome/138.0.7204.243 Electron/37.4.0 Safari/537.36" version="28.1.2">
  <diagram name="Página-1" id="yI0vYHvmzMjJBL3T_BDn">
    <mxGraphModel dx="1471" dy="863" grid="1" gridSize="10" guides="1" tooltips="1" connect="1" arrows="1" fold="1" page="1" pageScale="1" pageWidth="827" pageHeight="1169" math="0" shadow="0">
      <root>
        <mxCell id="0" />
        <mxCell id="1" parent="0" />
        <mxCell id="nGmSwzKZHvWV8GSCPyKS-1" value="" style="group" vertex="1" connectable="0" parent="1">
          <mxGeometry x="24" y="60" width="780" height="460" as="geometry" />
        </mxCell>
        <mxCell id="nGmSwzKZHvWV8GSCPyKS-2" value="" style="rounded=1;whiteSpace=wrap;html=1;" vertex="1" parent="nGmSwzKZHvWV8GSCPyKS-1">
          <mxGeometry width="780" height="460" as="geometry" />
        </mxCell>
        <mxCell id="nGmSwzKZHvWV8GSCPyKS-3" value="S3" style="outlineConnect=0;dashed=0;verticalLabelPosition=bottom;verticalAlign=top;align=center;html=1;shape=mxgraph.aws3.s3;fillColor=#E05243;gradientColor=none;" vertex="1" parent="nGmSwzKZHvWV8GSCPyKS-1">
          <mxGeometry x="170" y="80" width="76.5" height="93" as="geometry" />
        </mxCell>
        <mxCell id="nGmSwzKZHvWV8GSCPyKS-4" style="edgeStyle=orthogonalEdgeStyle;rounded=0;orthogonalLoop=1;jettySize=auto;html=1;exitX=1;exitY=0.5;exitDx=0;exitDy=0;exitPerimeter=0;flowAnimation=1;strokeWidth=2;" edge="1" parent="nGmSwzKZHvWV8GSCPyKS-1" source="nGmSwzKZHvWV8GSCPyKS-5" target="nGmSwzKZHvWV8GSCPyKS-13">
          <mxGeometry relative="1" as="geometry" />
        </mxCell>
        <mxCell id="nGmSwzKZHvWV8GSCPyKS-5" value="Lambda&lt;div&gt;NodeJS&lt;/div&gt;&lt;div&gt;Net CORE&lt;/div&gt;&lt;div&gt;Python&lt;/div&gt;" style="outlineConnect=0;dashed=0;verticalLabelPosition=bottom;verticalAlign=top;align=center;html=1;shape=mxgraph.aws3.lambda;fillColor=#F58534;gradientColor=none;" vertex="1" parent="nGmSwzKZHvWV8GSCPyKS-1">
          <mxGeometry x="457.47" y="80" width="76.5" height="93" as="geometry" />
        </mxCell>
        <mxCell id="nGmSwzKZHvWV8GSCPyKS-6" value="" style="endArrow=classic;html=1;rounded=0;flowAnimation=1;strokeWidth=2;exitX=1;exitY=0.5;exitDx=0;exitDy=0;exitPerimeter=0;entryX=0;entryY=0.5;entryDx=0;entryDy=0;entryPerimeter=0;" edge="1" parent="nGmSwzKZHvWV8GSCPyKS-1" source="nGmSwzKZHvWV8GSCPyKS-3" target="nGmSwzKZHvWV8GSCPyKS-5">
          <mxGeometry width="50" height="50" relative="1" as="geometry">
            <mxPoint x="303.5" y="125.90999999999997" as="sourcePoint" />
            <mxPoint x="413.5" y="125.90999999999997" as="targetPoint" />
          </mxGeometry>
        </mxCell>
        <mxCell id="nGmSwzKZHvWV8GSCPyKS-7" style="edgeStyle=orthogonalEdgeStyle;rounded=0;orthogonalLoop=1;jettySize=auto;html=1;flowAnimation=1;strokeWidth=2;" edge="1" parent="nGmSwzKZHvWV8GSCPyKS-1" source="nGmSwzKZHvWV8GSCPyKS-8" target="nGmSwzKZHvWV8GSCPyKS-10">
          <mxGeometry relative="1" as="geometry">
            <mxPoint x="267.63" y="351" as="sourcePoint" />
            <Array as="points" />
          </mxGeometry>
        </mxCell>
        <mxCell id="nGmSwzKZHvWV8GSCPyKS-8" value="&lt;span style=&quot;color: rgb(255, 255, 255); text-wrap-mode: wrap;&quot;&gt;Sistema de arquivos&lt;/span&gt;" style="shape=umlActor;verticalLabelPosition=bottom;verticalAlign=top;html=1;outlineConnect=0;fillColor=#f5f5f5;fontColor=#333333;strokeColor=#666666;" vertex="1" parent="nGmSwzKZHvWV8GSCPyKS-1">
          <mxGeometry x="275.63" y="331" width="30" height="60" as="geometry" />
        </mxCell>
        <mxCell id="nGmSwzKZHvWV8GSCPyKS-9" style="edgeStyle=orthogonalEdgeStyle;rounded=0;orthogonalLoop=1;jettySize=auto;html=1;exitX=0.5;exitY=0;exitDx=0;exitDy=0;exitPerimeter=0;flowAnimation=1;strokeWidth=2;entryX=0.5;entryY=1;entryDx=0;entryDy=0;" edge="1" parent="nGmSwzKZHvWV8GSCPyKS-1" source="nGmSwzKZHvWV8GSCPyKS-10">
          <mxGeometry relative="1" as="geometry">
            <mxPoint x="80.63499999999988" y="220" as="targetPoint" />
          </mxGeometry>
        </mxCell>
        <mxCell id="nGmSwzKZHvWV8GSCPyKS-10" value="Arquivo" style="strokeWidth=2;html=1;shape=mxgraph.flowchart.document2;whiteSpace=wrap;size=0.25;" vertex="1" parent="nGmSwzKZHvWV8GSCPyKS-1">
          <mxGeometry x="30.630000000000003" y="331" width="100" height="60" as="geometry" />
        </mxCell>
        <mxCell id="nGmSwzKZHvWV8GSCPyKS-11" value="Upload de Arquivo (S3)" style="text;html=1;align=center;verticalAlign=middle;whiteSpace=wrap;rounded=0;" vertex="1" parent="nGmSwzKZHvWV8GSCPyKS-1">
          <mxGeometry x="33.30000000000001" y="235" width="93.41" height="30" as="geometry" />
        </mxCell>
        <mxCell id="nGmSwzKZHvWV8GSCPyKS-12" style="edgeStyle=orthogonalEdgeStyle;rounded=0;orthogonalLoop=1;jettySize=auto;html=1;exitX=0.5;exitY=0;exitDx=0;exitDy=0;entryX=0;entryY=0.5;entryDx=0;entryDy=0;entryPerimeter=0;flowAnimation=1;strokeWidth=2;" edge="1" parent="nGmSwzKZHvWV8GSCPyKS-1" source="nGmSwzKZHvWV8GSCPyKS-11" target="nGmSwzKZHvWV8GSCPyKS-3">
          <mxGeometry relative="1" as="geometry" />
        </mxCell>
        <mxCell id="nGmSwzKZHvWV8GSCPyKS-13" value="Dynamo" style="outlineConnect=0;dashed=0;verticalLabelPosition=bottom;verticalAlign=top;align=center;html=1;shape=mxgraph.aws3.dynamo_db;fillColor=#2E73B8;gradientColor=none;" vertex="1" parent="nGmSwzKZHvWV8GSCPyKS-1">
          <mxGeometry x="680" y="86" width="72" height="81" as="geometry" />
        </mxCell>
        <mxCell id="nGmSwzKZHvWV8GSCPyKS-14" value="&lt;b&gt;VPC 2: Processamento Serverless&lt;/b&gt;" style="text;html=1;align=center;verticalAlign=middle;whiteSpace=wrap;rounded=0;labelBackgroundColor=none;textShadow=1;fontColor=#FFFFFF;fontSize=16;fontStyle=1;spacingTop=2;" vertex="1" parent="nGmSwzKZHvWV8GSCPyKS-1">
          <mxGeometry x="218" y="20" width="360" height="30" as="geometry" />
        </mxCell>
        <mxCell id="nGmSwzKZHvWV8GSCPyKS-15" value="&lt;span&gt;Gatilho de Execução&lt;/span&gt; (Quando o arquivo chega, Lambda roda)" style="text;whiteSpace=wrap;html=1;fontSize=13;fontStyle=0;align=center;" vertex="1" parent="nGmSwzKZHvWV8GSCPyKS-1">
          <mxGeometry x="260" y="129" width="170" height="66" as="geometry" />
        </mxCell>
        <mxCell id="nGmSwzKZHvWV8GSCPyKS-16" value="&lt;span style=&quot;forced-color-adjust: none; color: rgb(255, 255, 255); font-family: Helvetica; font-size: 12px; font-style: normal; font-variant-ligatures: normal; font-variant-caps: normal; letter-spacing: normal; orphans: 2; text-indent: 0px; text-transform: none; widows: 2; word-spacing: 0px; -webkit-text-stroke-width: 0px; white-space: nowrap; text-decoration-thickness: initial; text-decoration-style: initial; text-decoration-color: initial; box-shadow: none !important;&quot;&gt;Grava Metadados&lt;/span&gt;&lt;div style=&quot;&quot;&gt;&lt;span style=&quot;forced-color-adjust: none; color: rgb(255, 255, 255); font-family: Helvetica; font-size: 12px; font-style: normal; font-variant-ligatures: normal; font-variant-caps: normal; letter-spacing: normal; orphans: 2; text-indent: 0px; text-transform: none; widows: 2; word-spacing: 0px; -webkit-text-stroke-width: 0px; white-space: nowrap; text-decoration-thickness: initial; text-decoration-style: initial; text-decoration-color: initial; box-shadow: none !important;&quot;&gt;&amp;nbsp;Processados&lt;/span&gt;&lt;/div&gt;" style="text;html=1;verticalAlign=middle;whiteSpace=wrap;align=center;" vertex="1" parent="nGmSwzKZHvWV8GSCPyKS-1">
          <mxGeometry x="540" y="129" width="122.37" height="30" as="geometry" />
        </mxCell>
      </root>
    </mxGraphModel>
  </diagram>
</mxfile>
